<svg xmlns="http://www.w3.org/2000/svg" viewBox="0 0 200 48" fill="none">
  <!-- Official PerpusKita Logo Symbol (White / Light Version for Dark Backgrounds) -->
  <g transform="translate(4, 6)">
    <!-- Left Wing (Soft Sage) -->
    <path 
      d="M17.5 4.5 C11 2 4.5 4 2 5.5 C1.5 5.8 1 6.3 1 7 L1 27 C1 27.6 1.4 28.1 2 28.3 C4.5 29.2 10.5 30.5 17.5 27.5 Z" 
      fill="#E7EDE5" 
    />
    <!-- Right Wing (Soft Sage) -->
    <path 
      d="M18.5 4.5 C25 2 31.5 4 34 5.5 C34.5 5.8 35 6.3 35 7 L35 27 C35 27.6 34.6 28.1 34 28.3 C31.5 29.2 25.5 30.5 18.5 27.5 Z" 
      fill="#E7EDE5" 
    />
    <!-- Inner Pages Accent (Muted Sage) -->
    <path 
      d="M17.5 7.5 C12 5.2 6.5 7 4 8.2 L4 25 C6.5 24 12 22.5 17.5 24.5 Z" 
      fill="#A8B9A4" 
      opacity="0.9" 
    />
    <path 
      d="M18.5 7.5 C24 5.2 29.5 7 32 8.2 L32 25 C29.5 24 24 22.5 18.5 24.5 Z" 
      fill="#A8B9A4" 
      opacity="0.9" 
    />
  </g>

  <!-- Official Wordmark (White) -->
  <text 
    x="48" 
    y="31" 
    font-family="system-ui, -apple-system, 'Inter', 'Plus Jakarta Sans', sans-serif" 
    font-size="22" 
    font-weight="800" 
    letter-spacing="-0.04em" 
    fill="#FFFFFF"
  >
    PerpusKita
  </text>
</svg>
